#N canvas 1021 152 613 734 10;
#X obj 304 186 r notesIn-\$1;
#X obj 304 671 s notesOut-\$1;
#X obj 424 185 r auxIn-\$1;
#X obj 423 208 r expIn-\$1;
#X obj 423 233 r fsIn-\$1;
#X obj 416 299 r ctrlIn-\$1;
#X obj 416 325 s ctrlOut-\$1;
#X obj 195 247 r cutoff-\$1;
#X obj 61 443 moogf~;
#X msg 195 324 /moogf/freq \$1;
#X obj 195 273 * 50;
#X obj 195 298 i;
#X obj 67 505 *~;
#X obj 106 505 *~;
#X obj 196 472 - 1;
#X obj 196 500 * -1;
#X obj 35 589 *~;
#X obj 135 589 *~;
#X obj 207 400 / 100;
#X obj 207 374 r wet-\$1;
#X obj 34 186 inlet~ inL;
#X obj 143 186 inlet~ inR;
#X obj 27 671 outlet~ outL;
#X obj 136 671 outlet~ outR;
#X connect 7 0 10 0;
#X connect 8 1 12 0;
#X connect 8 2 13 0;
#X connect 9 0 8 0;
#X connect 10 0 11 0;
#X connect 11 0 9 0;
#X connect 12 0 22 0;
#X connect 13 0 23 0;
#X connect 14 0 15 0;
#X connect 15 0 16 1;
#X connect 15 0 17 1;
#X connect 18 0 12 1;
#X connect 18 0 13 1;
#X connect 18 0 14 0;
#X connect 19 0 18 0;
#X connect 20 0 8 1;
#X connect 20 0 16 0;
#X connect 21 0 8 2;
#X connect 21 0 17 0;
