#N canvas 79 405 2048 1110 10;
#X obj 304 186 r notesIn-\$1;
#X obj 304 601 s notesOut-\$1;
#X obj 25 186 inlet~ inL-\$1;
#X obj 135 186 inlet~ inR-\$1;
#X obj 27 601 outlet~ outL-\$1;
#X obj 136 601 outlet~ outR-\$1;
#X obj 424 185 r auxIn-\$1;
#X obj 423 208 r expIn-\$1;
#X obj 423 233 r fsIn-\$1;
#X obj 1342 858 pack 0 0;
#X obj 504 185 r ctrlIn-\$1;
#X obj 1342 966 s ctrlOut-\$1;
#X obj 1423 858 < 10;
#X obj 1342 918 spigot 0;
#X obj 1551 875 != 1;
#X obj 1506 918 spigot 0;
#X obj 1506 966 s rackMsgs;
#X obj 1505 846 pack s 0 0;
#X obj 1505 813 symbol \$1;
#X obj 1504 781 t b f;
#X msg 1506 945 modulate \$1 \$2 \$3;
#X obj 1507 701 vline~;
#X obj 1506 732 snapshot~;
#X obj 1731 99 r e_attack-\$1;
#X obj 1433 94 r e_decay-\$1;
#X obj 1342 768 r e_bus-\$1;
#X obj 875 85 notein;
#X obj 806 285 ==;
#X obj 788 389 sel 1;
#X obj 754 630 ==;
#X obj 1423 256 +;
#X obj 1578 250 +;
#X obj 1558 185 t b f;
#X obj 1368 185 t b f;
#X obj 1428 347 +;
#X obj 1425 290 t b f;
#X obj 1616 586 list store;
#X obj 1616 608 list trim;
#X msg 1094 691 stop;
#X obj 1285 91 r e_sustain-\$1;
#X obj 1555 98 r e_release-\$1;
#X obj 1873 96 r e_amp-\$1;
#X obj 1382 388 t b f;
#X obj 1440 185 t b f;
#X obj 1520 583 list store;
#X obj 1520 605 list trim;
#X obj 1436 587 list store;
#X obj 1436 609 list trim;
#X obj 1475 426 pack f f;
#X msg 1475 454 0 \$1 \$2;
#X obj 1873 118 / 100;
#X obj 754 652 sel 1;
#X obj 785 327 &&;
#X obj 756 275 != 0;
#X obj 1092 738 metro 1;
#X obj 825 618 int;
#X obj 876 597 / 10;
#X obj 825 640 * 10;
#X obj 788 411 t b b;
#X obj 728 601 timer 1 msec;
#X obj 1011 259 f;
#X obj 983 212 t f f b;
#X obj 995 289 ==;
#X obj 1055 215 == 0;
#X obj 1014 319 &&;
#X obj 1513 534 t b b b b;
#X msg 1677 455 1 \$1 0;
#X msg 1582 455 \$1 \$2 \$3;
#X obj 1577 421 pack f f f;
#X obj 1657 187 t b f;
#X obj 1532 253 +;
#X obj 1495 185 t b f;
#X obj 1371 354 +;
#X obj 1334 293 t b f;
#X obj 1119 211 ==;
#X obj 1076 89 r e_ch_in-\$1;
#X obj 1046 381 &&;
#X msg 1742 584 0 0 0;
#X obj 1297 586 list store;
#X obj 1297 608 list trim;
#X msg 1387 459 0 \$1 0;
#X obj 1046 403 sel 1;
#X text 1266 555 Premature release;
#X text 1507 518 Reset + ADSR;
#X text 785 577 tik tok;
#X connect 9 0 13 0;
#X connect 12 0 13 1;
#X connect 12 0 14 0;
#X connect 13 0 11 0;
#X connect 14 0 15 1;
#X connect 15 0 20 0;
#X connect 17 0 15 0;
#X connect 18 0 17 0;
#X connect 19 0 9 0;
#X connect 19 0 18 0;
#X connect 19 1 17 2;
#X connect 19 1 9 1;
#X connect 20 0 16 0;
#X connect 21 0 22 0;
#X connect 22 0 19 0;
#X connect 23 0 31 0;
#X connect 23 0 66 0;
#X connect 23 0 69 0;
#X connect 23 0 70 0;
#X connect 24 0 32 0;
#X connect 24 0 43 0;
#X connect 24 0 71 0;
#X connect 25 0 12 0;
#X connect 25 0 9 0;
#X connect 25 0 17 1;
#X connect 26 0 61 0;
#X connect 26 1 53 0;
#X connect 26 1 63 0;
#X connect 26 2 27 0;
#X connect 26 2 74 0;
#X connect 27 0 52 1;
#X connect 28 0 58 0;
#X connect 28 0 65 0;
#X connect 29 0 51 0;
#X connect 30 0 35 0;
#X connect 31 0 34 0;
#X connect 32 0 31 0;
#X connect 32 1 31 1;
#X connect 33 0 30 0;
#X connect 33 1 30 1;
#X connect 34 0 56 0;
#X connect 35 0 34 0;
#X connect 35 1 34 1;
#X connect 36 0 37 0;
#X connect 37 0 21 0;
#X connect 38 0 54 0;
#X connect 39 0 33 0;
#X connect 39 0 73 0;
#X connect 40 0 30 0;
#X connect 40 0 48 0;
#X connect 41 0 50 0;
#X connect 42 0 48 0;
#X connect 42 1 48 1;
#X connect 43 0 68 0;
#X connect 43 1 68 1;
#X connect 44 0 45 0;
#X connect 45 0 21 0;
#X connect 46 0 47 0;
#X connect 47 0 21 0;
#X connect 48 0 49 0;
#X connect 48 0 80 0;
#X connect 49 0 46 1;
#X connect 50 0 68 0;
#X connect 51 0 38 0;
#X connect 52 0 28 0;
#X connect 53 0 52 0;
#X connect 54 0 22 0;
#X connect 54 0 59 1;
#X connect 55 0 57 0;
#X connect 56 0 55 0;
#X connect 57 0 29 1;
#X connect 58 0 54 0;
#X connect 58 1 59 0;
#X connect 59 0 29 0;
#X connect 60 0 62 1;
#X connect 61 0 60 1;
#X connect 61 1 62 0;
#X connect 61 2 60 0;
#X connect 62 0 64 0;
#X connect 63 0 64 1;
#X connect 64 0 76 0;
#X connect 65 0 46 0;
#X connect 65 1 44 0;
#X connect 65 2 36 0;
#X connect 65 3 77 0;
#X connect 66 0 36 1;
#X connect 67 0 44 1;
#X connect 68 0 67 0;
#X connect 69 0 68 0;
#X connect 69 1 68 2;
#X connect 70 0 72 0;
#X connect 71 0 70 0;
#X connect 71 1 70 1;
#X connect 72 0 42 0;
#X connect 73 0 72 0;
#X connect 73 1 72 1;
#X connect 74 0 76 1;
#X connect 75 0 74 1;
#X connect 75 0 27 1;
#X connect 76 0 81 0;
#X connect 77 0 21 0;
#X connect 78 0 79 0;
#X connect 79 0 21 0;
#X connect 80 0 78 1;
#X connect 81 0 78 0;
