#N canvas 0 113 3840 2047 10;
#X obj 1128 901 chainin 1 \$1;
#X obj 1127 1076 chainout 1 \$1;
#X obj 1117 956 fullmodule a1 \$1;
#X obj 1117 981 fullmodule a2 \$1;
#X obj 1117 1005 fullmodule a3 \$1;
#X obj 2284 158 auxmodule m1 \$1;
#X obj 2284 180 auxmodule m2 \$1;
#X obj 2284 201 auxmodule m3 \$1;
#X obj 2286 65 auxmodule s1 \$1;
#X obj 2286 87 auxmodule s2 \$1;
#X obj 1260 956 fullmodule b1 \$1;
#X obj 1260 981 fullmodule b2 \$1;
#X obj 1260 1005 fullmodule b3 \$1;
#X obj 1260 1030 fullmodule b4 \$1;
#X obj 1395 956 fullmodule c1 \$1;
#X obj 1395 981 fullmodule c2 \$1;
#X obj 1395 1005 fullmodule c3 \$1;
#X obj 1265 901 chainin 2 \$1;
#X obj 1405 901 chainin 3 \$1;
#X obj 1254 829 premodule p1 \$1;
#X obj 1262 1157 +~;
#X obj 1355 1157 +~;
#X obj 1262 1223 +~;
#X obj 1355 1223 +~;
#X obj 1262 1322 postmodule p2 \$1;
#X obj 1404 1076 chainout 3 \$1;
#X obj 1269 1076 chainout 2 \$1;
#X obj 240 51 r notesIn-\$1;
#X obj 242 356 s notesOut-\$1;
#X obj 25 51 inlet~ inL-\$1;
#X obj 135 51 inlet~ inR-\$1;
#X obj 27 356 outlet~ outL-\$1;
#X obj 136 356 outlet~ outR-\$1;
#X obj 425 51 r auxIn-\$1;
#X obj 507 51 r expIn-\$1;
#X obj 507 77 r fsIn-\$1;
#X obj 329 51 r ctrlIn-\$1;
#X obj 336 355 s ctrlOut-\$1;
#N canvas 877 395 732 612 keyhandler 0;
#X obj 65 47 inlet note;
#X obj 197 47 inlet aux;
#X obj 182 203 i;
#X obj 65 85 unpack 0 0 0;
#X obj 65 278 spigot 1;
#X obj 237 278 spigot 0;
#X obj 110 234 == 0;
#X obj 110 134 == 0;
#X obj 65 177 spigot 0;
#X text 139 135 do on key release;
#X text 217 297 aux+key handling;
#X text 47 297 normal handling;
#X obj 65 198 - 60;
#X obj 237 340 outlet auxkey;
#X obj 65 336 outlet normkey;
#X connect 0 0 3 0;
#X connect 1 0 2 1;
#X connect 2 0 5 1;
#X connect 2 0 6 0;
#X connect 3 0 8 0;
#X connect 3 1 7 0;
#X connect 4 0 14 0;
#X connect 5 0 13 0;
#X connect 6 0 4 1;
#X connect 7 0 8 1;
#X connect 8 0 12 0;
#X connect 12 0 4 0;
#X connect 12 0 5 0;
#X restore 240 181 pd keyhandler;
#X msg 240 243 selectpage \$1;
#X obj 240 269 s rackMsgs;
#X obj 322 495 mainctrlhandler \$1;
#X obj 646 110 cnv 15 10 600 empty empty empty 20 12 0 14 -204786 -66577
0;
#X text 1395 50 Routing Setup;
#X obj 24 822 actmodhandler \$1;
#X obj 196 618 auxhandler;
#X obj 188 494 r activeModule;
#X obj 188 520 symbol;
#X obj 24 623 route 0;
#X obj 76 757 list store a1 a2 a3 b1 b2 b3 b4 c1 c2 c3;
#X msg 76 720 get \$1 1;
#X obj 76 690 - 1;
#X obj 155 560 t b s s;
#X obj 24 493 r r-main-dest-\$1;
#X obj 24 592 pack 0 s;
#X obj 76 661 unpack 0 s;
#X obj 24 654 symbol;
#X obj 1254 747 r~ oinL;
#X obj 1341 747 r~ oinR;
#X obj 1262 1400 throw~ ooutL;
#X obj 1355 1401 throw~ ooutR;
#X obj 1272 136 adc~ 3 4 5 6 7, f 110;
#X obj 1686 916 / 100;
#X obj 1685 980 *;
#X obj 1685 953 t f f;
#X obj 1685 1008 sig~;
#X obj 1685 1033 lop~ 5;
#X obj 1528 1219 *~;
#X obj 1618 1221 *~;
#X obj 1686 887 r dig-main-\$1;
#X obj 925 169 / 100;
#X obj 924 233 *;
#X obj 924 206 t f f;
#X obj 924 261 sig~;
#X obj 924 286 lop~ 5;
#X obj 983 787 *~;
#X obj 1094 170 / 100;
#X obj 1093 234 *;
#X obj 1093 207 t f f;
#X obj 1093 262 sig~;
#X obj 1093 287 lop~ 5;
#X obj 1120 790 *~;
#X obj 2016 152 / 100;
#X obj 2015 216 *;
#X obj 2015 189 t f f;
#X obj 2015 244 sig~;
#X obj 2015 269 lop~ 5;
#X obj 1789 771 *~;
#X obj 1094 141 r dig-trk7-ch2-\$1;
#X obj 2016 123 r dig-trk8-ch3-\$1;
#X obj 925 140 r dig-trk6-ch1-\$1;
#X obj 1470 605 -~;
#X obj 1492 578 *~;
#X obj 1498 669 -~;
#X obj 1520 642 *~;
#X obj 1513 715 -~;
#X obj 1535 688 *~;
#X obj 1569 597 -~;
#X obj 1591 570 *~;
#X obj 1597 661 -~;
#X obj 1618 628 *~;
#X obj 1612 707 -~;
#X obj 1634 680 *~;
#X connect 0 0 2 0;
#X connect 0 1 2 1;
#X connect 0 2 2 2;
#X connect 0 3 2 3;
#X connect 1 0 20 0;
#X connect 1 1 21 1;
#X connect 2 0 3 0;
#X connect 2 1 3 1;
#X connect 2 2 3 2;
#X connect 2 3 3 3;
#X connect 3 0 4 0;
#X connect 3 1 4 1;
#X connect 3 2 4 2;
#X connect 3 3 4 3;
#X connect 4 0 1 0;
#X connect 4 1 1 1;
#X connect 4 2 1 2;
#X connect 4 3 1 3;
#X connect 10 0 11 0;
#X connect 10 1 11 1;
#X connect 10 2 11 2;
#X connect 10 3 11 3;
#X connect 11 0 12 0;
#X connect 11 1 12 1;
#X connect 11 2 12 2;
#X connect 11 3 12 3;
#X connect 12 0 13 0;
#X connect 12 1 13 1;
#X connect 12 2 13 2;
#X connect 12 3 13 3;
#X connect 13 0 26 0;
#X connect 13 1 26 1;
#X connect 13 2 26 2;
#X connect 13 3 26 3;
#X connect 14 0 15 0;
#X connect 14 1 15 1;
#X connect 14 2 15 2;
#X connect 14 3 15 3;
#X connect 15 0 16 0;
#X connect 15 1 16 1;
#X connect 15 2 16 2;
#X connect 15 3 16 3;
#X connect 16 0 25 0;
#X connect 16 1 25 1;
#X connect 16 2 25 2;
#X connect 16 3 25 3;
#X connect 17 0 10 0;
#X connect 17 1 10 1;
#X connect 17 2 10 2;
#X connect 17 3 10 3;
#X connect 18 0 14 0;
#X connect 18 1 14 1;
#X connect 18 2 14 2;
#X connect 18 3 14 3;
#X connect 19 0 0 0;
#X connect 19 0 17 0;
#X connect 19 0 18 0;
#X connect 19 1 0 1;
#X connect 19 1 17 1;
#X connect 19 1 18 1;
#X connect 20 0 22 0;
#X connect 21 0 23 0;
#X connect 22 0 24 0;
#X connect 23 0 24 1;
#X connect 24 0 59 0;
#X connect 24 1 60 0;
#X connect 25 0 22 1;
#X connect 25 1 23 1;
#X connect 26 0 20 1;
#X connect 26 1 21 0;
#X connect 27 0 38 0;
#X connect 33 0 38 1;
#X connect 38 0 39 0;
#X connect 39 0 40 0;
#X connect 46 0 47 0;
#X connect 47 0 52 0;
#X connect 48 0 56 0;
#X connect 48 1 55 0;
#X connect 49 0 44 0;
#X connect 50 0 49 0;
#X connect 51 0 50 0;
#X connect 52 0 54 0;
#X connect 52 1 54 1;
#X connect 52 2 45 0;
#X connect 53 0 54 0;
#X connect 54 0 48 0;
#X connect 55 0 51 0;
#X connect 56 0 44 0;
#X connect 57 0 19 0;
#X connect 58 0 19 1;
#X connect 61 0 91 0;
#X connect 61 1 97 0;
#X connect 61 2 75 0;
#X connect 61 2 92 0;
#X connect 61 2 98 0;
#X connect 61 3 81 0;
#X connect 61 3 94 0;
#X connect 61 3 100 0;
#X connect 61 4 96 0;
#X connect 61 4 102 0;
#X connect 61 4 87 0;
#X connect 62 0 64 0;
#X connect 63 0 65 0;
#X connect 64 0 63 0;
#X connect 64 1 63 1;
#X connect 65 0 66 0;
#X connect 66 0 67 1;
#X connect 66 0 68 1;
#X connect 67 0 24 0;
#X connect 68 0 24 1;
#X connect 69 0 62 0;
#X connect 70 0 72 0;
#X connect 71 0 73 0;
#X connect 72 0 71 0;
#X connect 72 1 71 1;
#X connect 73 0 74 0;
#X connect 74 0 75 1;
#X connect 74 0 92 1;
#X connect 74 0 98 1;
#X connect 75 0 0 0;
#X connect 75 0 0 1;
#X connect 76 0 78 0;
#X connect 77 0 79 0;
#X connect 78 0 77 0;
#X connect 78 1 77 1;
#X connect 79 0 80 0;
#X connect 80 0 81 1;
#X connect 80 0 94 1;
#X connect 80 0 100 1;
#X connect 81 0 17 0;
#X connect 81 0 17 1;
#X connect 82 0 84 0;
#X connect 83 0 85 0;
#X connect 84 0 83 0;
#X connect 84 1 83 1;
#X connect 85 0 86 0;
#X connect 86 0 87 1;
#X connect 86 0 96 1;
#X connect 86 0 102 1;
#X connect 87 0 18 0;
#X connect 87 0 18 1;
#X connect 88 0 76 0;
#X connect 89 0 82 0;
#X connect 90 0 70 0;
#X connect 91 0 93 0;
#X connect 92 0 91 1;
#X connect 93 0 95 0;
#X connect 94 0 93 1;
#X connect 95 0 67 0;
#X connect 96 0 95 1;
#X connect 97 0 99 0;
#X connect 98 0 97 1;
#X connect 99 0 101 0;
#X connect 100 0 99 1;
#X connect 101 0 68 0;
#X connect 102 0 101 1;
