#N canvas 0 113 1920 2047 10;
#X obj 304 186 r notesIn-\$1;
#X obj 303 670 s notesOut-\$1;
#X obj 424 185 r auxIn-\$1;
#X obj 423 208 r expIn-\$1;
#X obj 423 233 r fsIn-\$1;
#X obj 416 299 r ctrlIn-\$1;
#X obj 416 325 s ctrlOut-\$1;
#X obj 34 186 inlet~ inL;
#X obj 143 186 inlet~ inR;
#X obj 27 671 outlet~ outL;
#X obj 136 671 outlet~ outR;
#N canvas 399 570 1044 934 retrigs 0;
#X obj 183 73 inlet;
#X obj 160 902 outlet;
#X obj 508 296 f;
#X obj 480 249 t f f b;
#X obj 492 326 ==;
#X obj 552 252 == 0;
#X obj 518 362 &&;
#X obj 316 182 unpack f f f;
#X obj 364 568 timer 1 msec;
#X obj 360 719 ==;
#X obj 485 664 int;
#X obj 569 503 metro 1;
#X obj 360 741 sel 1;
#X msg 577 448 stop;
#X msg 335 525 bang;
#X obj 583 551 + 1;
#X obj 543 548 int 0;
#X obj 407 431 t b b;
#X obj 622 415 t b b;
#X msg 681 522 0;
#X obj 398 400 route 0;
#X obj 518 384 sel 1;
#X obj 127 462 list store;
#X obj 216 458 list store;
#X obj 239 418 pack f 0 f;
#X obj 282 563 == 10;
#X obj 282 585 sel 1;
#X obj 529 617 expr $f2 * pow(2 \, $i1 / $f3);
#X obj 732 105 r exp_1-\$1;
#X obj 452 105 r note_length-\$1;
#X obj 325 485 int;
#X obj 817 105 r exp_2-\$1;
#X obj 183 96 t l b l;
#X connect 0 0 32 0;
#X connect 2 0 4 1;
#X connect 3 0 2 1;
#X connect 3 1 4 0;
#X connect 3 2 2 0;
#X connect 4 0 6 0;
#X connect 5 0 6 1;
#X connect 6 0 21 0;
#X connect 7 0 3 0;
#X connect 7 0 24 0;
#X connect 7 1 5 0;
#X connect 7 1 20 0;
#X connect 7 2 24 2;
#X connect 8 0 9 0;
#X connect 8 0 25 0;
#X connect 9 0 12 0;
#X connect 10 0 9 1;
#X connect 11 0 8 1;
#X connect 11 0 16 0;
#X connect 12 0 14 0;
#X connect 12 0 22 0;
#X connect 13 0 11 0;
#X connect 14 0 8 0;
#X connect 15 0 16 1;
#X connect 16 0 15 0;
#X connect 16 0 27 0;
#X connect 17 0 11 0;
#X connect 17 1 8 0;
#X connect 18 0 19 0;
#X connect 18 1 13 0;
#X connect 19 0 16 1;
#X connect 20 1 17 0;
#X connect 21 0 18 0;
#X connect 22 0 1 0;
#X connect 23 0 1 0;
#X connect 24 0 23 1;
#X connect 25 0 26 0;
#X connect 26 0 23 0;
#X connect 27 0 10 0;
#X connect 28 0 27 1;
#X connect 29 0 30 0;
#X connect 30 0 25 1;
#X connect 31 0 27 2;
#X connect 32 0 22 1;
#X connect 32 1 23 0;
#X connect 32 2 7 0;
#X restore 303 427 pd retrigs;
#X connect 0 0 11 0;
#X connect 7 0 9 0;
#X connect 8 0 10 0;
#X connect 11 0 1 0;
