#N canvas 0 116 1920 2044 12;
#X obj 469 165 r notesIn-\$1;
#X obj 469 470 s notesOut-\$1;
#X obj 190 165 inlet~ inL-\$1;
#X obj 300 165 inlet~ inR-\$1;
#X obj 192 470 outlet~ outL-\$1;
#X obj 301 470 outlet~ outR-\$1;
#X obj 664 165 r auxIn-\$1;
#X obj 663 188 r expIn-\$1;
#X obj 663 213 r fsIn-\$1;
#X obj 563 165 r ctrlIn-\$1;
#X obj 563 470 s ctrlOut-\$1;
#N canvas 0 116 1920 2044 rekOG 0;
#X obj 139 54 inlet~ inL;
#X obj 265 60 inlet~ inR;
#X obj 148 788 writesf~ 2, f 16;
#X msg 584 359 start;
#X obj 348 358 s auxLine;
#X obj 724 118 change 0;
#X obj 613 176 sel 1, f 38;
#X msg 688 359 stop;
#X msg 417 268 Rec Stopped.;
#X msg 416 298 Rec Started...;
#X obj 830 327 bang;
#X msg 634 641 open /home/we/media/recordings/\$1.wav;
#X obj 653 262 t b b, f 31;
#X obj 817 358 random 100000;
#X obj 722 80 r record-\$1;
#X obj 1598 126 r cue-\$1;
#X obj 1463 119 r auxIn-\$1;
#X msg 1023 536 clear;
#X obj 1034 354 t b b;
#X msg 1105 539 write /home/we/media/recordings/\$1.txt;
#X obj 1095 510 int, f 26;
#X obj 1543 177 change 0;
#X obj 1544 230 sel 0;
#X obj 1506 439 text insert cues;
#X obj 1063 612 text define -k cues;
#A set 132.29 \;;
#X msg 1461 261 bang;
#X obj 1132 358 t b b;
#X msg 1637 387 1e+09;
#X obj 1653 356 r loadbang-\$1;
#X obj 1489 335 timer 1000 msec;
#X connect 0 0 2 0;
#X connect 1 0 2 1;
#X connect 3 0 2 0;
#X connect 5 0 6 0;
#X connect 6 0 12 0;
#X connect 6 1 7 0;
#X connect 6 1 8 0;
#X connect 6 1 18 0;
#X connect 7 0 2 0;
#X connect 8 0 4 0;
#X connect 9 0 4 0;
#X connect 10 0 13 0;
#X connect 11 0 2 0;
#X connect 12 0 3 0;
#X connect 12 0 9 0;
#X connect 12 1 10 0;
#X connect 12 1 26 0;
#X connect 13 0 11 0;
#X connect 13 0 20 1;
#X connect 14 0 5 0;
#X connect 15 0 21 0;
#X connect 16 0 21 0;
#X connect 17 0 24 0;
#X connect 18 0 17 0;
#X connect 18 1 20 0;
#X connect 19 0 24 0;
#X connect 20 0 19 0;
#X connect 21 0 22 0;
#X connect 22 0 29 1;
#X connect 25 0 29 0;
#X connect 26 0 17 0;
#X connect 26 1 25 0;
#X connect 27 0 23 1;
#X connect 28 0 27 0;
#X connect 29 0 23 0;
#X restore 339 312 pd rekOG;
#X connect 0 0 1 0;
#X connect 2 0 4 0;
#X connect 2 0 11 0;
#X connect 3 0 5 0;
#X connect 3 0 11 1;
#X connect 9 0 10 0;
