#N canvas 616 223 781 615 12;
#X obj 126 486 vline~;
#X obj 233 92 inlet A;
#X obj 326 92 inlet D;
#X obj 425 91 inlet S;
#X obj 534 90 inlet R;
#X obj 127 544 outlet~ env;
#X obj 37 58 inlet trigger;
#X obj 215 53 f \$1;
#X obj 313 53 f \$2;
#X obj 409 53 f \$3;
#X obj 518 54 f \$4;
#X msg 126 440 0 \, 1 \$1 0 \, 0.7 \$2 \$1 \, 0 \$4 \$5;
#X obj 175 357 pack f f f f f, f 49;
#X obj 193 202 f 0;
#X obj 283 205 f 0;
#X obj 384 204 f 0;
#X obj 491 204 f 0;
#X obj 237 270 +;
#X obj 299 313 +;
#X obj 37 107 t b b b b;
#X obj 193 232 t f f;
#X connect 0 0 5 0;
#X connect 1 0 13 1;
#X connect 2 0 14 1;
#X connect 3 0 15 1;
#X connect 4 0 16 1;
#X connect 6 0 19 0;
#X connect 7 0 13 1;
#X connect 8 0 14 1;
#X connect 9 0 15 1;
#X connect 10 0 16 1;
#X connect 11 0 0 0;
#X connect 12 0 11 0;
#X connect 13 0 20 0;
#X connect 14 0 17 1;
#X connect 14 0 12 1;
#X connect 15 0 18 1;
#X connect 15 0 12 2;
#X connect 16 0 12 3;
#X connect 17 0 18 0;
#X connect 18 0 12 4;
#X connect 19 0 13 0;
#X connect 19 1 14 0;
#X connect 19 2 15 0;
#X connect 19 3 16 0;
#X connect 20 0 12 0;
#X connect 20 1 17 0;
