#N canvas 531 190 1358 693 10;
#X obj 304 186 r notesIn-\$1;
#X obj 304 491 s notesOut-\$1;
#X obj 25 186 inlet~ inL-\$1;
#X obj 135 186 inlet~ inR-\$1;
#X obj 27 491 outlet~ outL-\$1;
#X obj 136 491 outlet~ outR-\$1;
#X obj 424 185 r auxIn-\$1;
#X obj 423 208 r expIn-\$1;
#X obj 423 233 r fsIn-\$1;
#X obj 428 283 r bpm;
#X obj 28 451 +~;
#X obj 135 452 +~;
#N canvas 157 254 1709 621 simple_osc 1;
#X obj 364 20 inlet notes;
#X obj 433 540 outlet~ audio;
#X obj 248 24 r freq-\$1;
#X obj 900 267 adsr 200 300 200 100;
#X obj 421 112 sel 0;
#X obj 377 70 unpack f f f;
#X obj 377 113 mtof;
#X obj 434 485 *~;
#X obj 809 230 t b f;
#X obj 834 343 *~;
#X obj 835 281 / 127;
#X obj 377 173 +;
#X obj 859 102 r attack-\$1;
#X obj 906 131 r decay-\$1;
#X obj 970 157 r sustain-\$1;
#X obj 1017 190 r release-\$1;
#X obj 906 338 r hold-\$1;
#X obj 834 380 max~;
#X obj 80 61 r wave-\$1;
#X obj 196 350 *~;
#X obj 298 350 *~;
#X obj 405 356 *~;
#X obj 112 116 t f b;
#X obj 160 180 f 0;
#X obj 211 317 f 1;
#X obj 320 324 f 1;
#X obj 424 328 f 1;
#X obj 539 363 *~;
#X obj 558 335 f 1;
#X obj 35 179 route 1 2 3 4 5;
#X obj 632 369 *~;
#X obj 651 341 f 1;
#N canvas 0 96 1099 300 ocsillators 0;
#X obj 446 4 inlet freq;
#X obj 144 220 outlet~ sine;
#X obj 239 222 outlet~ triangle;
#X obj 387 219 outlet~ sawtooth;
#X obj 524 217 outlet~ square;
#X obj 672 217 outlet~ tick;
#X obj 145 76 osc~ 440;
#X obj 388 79 phasor~ 440;
#X obj 388 105 *~ 2;
#X obj 388 127 -~ 1;
#X obj 524 86 phasor~ 440;
#X obj 524 135 *~ 2;
#X obj 524 157 -~ 1;
#X obj 525 112 expr~ $v1 > 0.5;
#X obj 243 77 phasor~ 440;
#X obj 242 108 min~;
#X obj 279 103 *~ -1;
#X obj 280 126 +~ 1;
#X obj 241 133 *~ 4;
#X obj 240 157 -~ 1;
#X obj 673 84 phasor~ 440;
#X obj 673 135 clip~ 0 1;
#X obj 673 158 *~ 100;
#X obj 673 107 -~ 0.99;
#X connect 0 0 6 0;
#X connect 0 0 14 0;
#X connect 0 0 7 0;
#X connect 0 0 10 0;
#X connect 0 0 20 0;
#X connect 6 0 1 0;
#X connect 7 0 8 0;
#X connect 8 0 9 0;
#X connect 9 0 3 0;
#X connect 10 0 13 0;
#X connect 11 0 12 0;
#X connect 12 0 4 0;
#X connect 13 0 11 0;
#X connect 14 0 15 0;
#X connect 14 0 16 0;
#X connect 15 0 18 0;
#X connect 16 0 17 0;
#X connect 17 0 15 1;
#X connect 18 0 19 0;
#X connect 19 0 2 0;
#X connect 20 0 23 0;
#X connect 21 0 22 0;
#X connect 22 0 5 0;
#X connect 23 0 21 0;
#X restore 378 207 pd ocsillators;
#X connect 0 0 5 0;
#X connect 2 0 11 1;
#X connect 3 0 9 1;
#X connect 4 1 8 0;
#X connect 5 0 6 0;
#X connect 5 1 4 0;
#X connect 6 0 11 0;
#X connect 7 0 1 0;
#X connect 8 0 3 0;
#X connect 8 1 10 0;
#X connect 9 0 17 0;
#X connect 10 0 9 0;
#X connect 11 0 32 0;
#X connect 12 0 3 1;
#X connect 13 0 3 2;
#X connect 14 0 3 3;
#X connect 15 0 3 4;
#X connect 16 0 17 1;
#X connect 17 0 7 1;
#X connect 18 0 22 0;
#X connect 19 0 7 0;
#X connect 20 0 7 0;
#X connect 21 0 7 0;
#X connect 22 0 29 0;
#X connect 22 1 23 0;
#X connect 23 0 19 1;
#X connect 23 0 20 1;
#X connect 23 0 21 1;
#X connect 23 0 27 1;
#X connect 23 0 31 0;
#X connect 24 0 19 1;
#X connect 25 0 20 1;
#X connect 26 0 21 1;
#X connect 27 0 7 0;
#X connect 28 0 27 1;
#X connect 29 0 24 0;
#X connect 29 1 25 0;
#X connect 29 2 26 0;
#X connect 29 3 28 0;
#X connect 29 4 30 1;
#X connect 30 0 7 0;
#X connect 31 0 30 1;
#X connect 32 0 19 0;
#X connect 32 1 20 0;
#X connect 32 2 21 0;
#X connect 32 3 27 0;
#X connect 32 4 30 0;
#X restore 166 313 pd simple_osc;
#X connect 0 0 1 0;
#X connect 0 0 12 0;
#X connect 2 0 10 0;
#X connect 3 0 11 0;
#X connect 10 0 4 0;
#X connect 11 0 5 0;
#X connect 12 0 10 1;
#X connect 12 0 11 1;
