#N canvas 472 263 1306 644 10;
#X obj 305 21 r notesIn-\$1;
#X obj 305 39 s notesOut-\$1;
#X obj 111 21 r loadbang-\$1;
#X obj 111 39 int 0;
#X obj 111 57 s aux-led-\$1;
#X obj 399 21 r ctrlIn-\$1;
#X obj 399 39 s ctrlOut-\$1;
#X obj 487 74 sel \$1;
#X msg 520 531 /oled/gFlip 3;
#X obj 487 38 r activePage;
#X msg 487 92 1;
#X msg 520 92 0;
#X text 577 118 page and module is active;
#X obj 849 226 metro 500;
#X msg 849 152 stop;
#X obj 849 254 tgl 15 0 empty empty empty 17 7 0 10 -262144 -1 -1 1
1;
#X obj 853 709 cputime;
#X obj 853 746 * 0.1;
#X obj 853 728 int;
#X obj 853 782 f;
#X msg 770 198 0;
#X msg 595 230 /oled/gClear 3 1;
#X obj 849 271 sel 1;
#X obj 520 184 del 500;
#X obj 520 138 sel 1, f 17;
#X obj 520 120 change;
#X obj 205 85 s aux-led-\$1;
#X obj 520 212 t b b b b b b;
#X obj 205 21 r master-ticks;
#X obj 205 39 sel 0;
#X msg 205 57 7;
#X msg 232 57 0;
#X obj 932 21 r auxIn-\$1;
#X obj 932 39 sel 1;
#X obj 959 57 s start;
#X obj 959 93 s stop;
#X obj 932 111 s reset;
#X obj 188 134 spigot, f 9;
#X obj 188 116 r oknob1;
#X obj 932 75 t b b;
#X msg 38 331 0;
#X msg 63 331 11;
#X msg 89 331 23;
#X msg 268 351 117;
#X msg 242 351 105;
#X msg 217 351 94;
#X msg 114 341 41;
#X msg 140 341 52;
#X msg 165 341 64;
#X msg 191 341 76;
#X obj 38 293 sel a1 a2 a3 b1 b2 b3 b4 c1 c2 c3 m1 m2 m3 p1 p2 s1 s2
, f 73;
#N canvas 4 50 1912 998 pixels 0;
#X obj 285 -49 inlet;
#X msg 50 405 /oled/gLine 3 92 55 92 63 1;
#X msg 30 369 /oled/gLine 3 39 55 39 63 1;
#X msg 40 387 /oled/gLine 3 88 55 88 63 1;
#X msg 20 351 /oled/gLine 3 35 55 35 63 1;
#X msg 711 406 /oled/gLine 3 0 55 35 55 1;
#X msg 871 406 /oled/gLine 3 39 55 88 55 1;
#X msg 1037 406 /oled/gLine 3 92 55 127 55 1;
#X obj 285 -31 bng 15 250 50 0 empty empty empty 17 7 0 10 -262144
-1 -1;
#X msg 711 182 /oled/gBox 3 4 37 26 11 1;
#X msg 20 223 /oled/gLine 3 4 52 4 54 1;
#X msg 30 241 /oled/gLine 3 41 52 41 54 1;
#X msg 40 259 /oled/gLine 3 94 52 94 54 1;
#X msg 20 159 /oled/gLine 3 2 50 2 54 1;
#X msg 30 177 /oled/gLine 3 43 50 43 54 1;
#X msg 40 195 /oled/gLine 3 96 50 96 54 1;
#X obj 517 925 outlet;
#X msg 1025 182 /oled/gBox 3 98 37 26 11 1;
#X msg 1197 238 /oled/gLine 3 124 45 127 45 1;
#X msg 711 238 /oled/gLine 3 0 45 3 45 1;
#X msg 1031 238 /oled/gLine 3 82 45 98 45 1;
#X msg 865 378 /oled/gSetPixel 3 86 54 1;
#X msg 711 378 /oled/gSetPixel 3 33 54 1;
#X msg 865 182 /oled/gBox 3 45 37 38 11 1;
#X msg 865 238 /oled/gLine 3 30 45 45 45 1;
#X msg 50 277 /oled/gLine 3 100 52 100 48 1;
#X msg 60 295 /oled/gLine 3 102 52 102 48 1;
#X msg 711 350 /oled/gLine 3 33 53 102 53 1;
#X msg 1197 210 /oled/gLine 3 124 43 127 43 1;
#X msg 711 210 /oled/gLine 3 0 43 3 43 1;
#X msg 1051 294 /oled/gLine 3 104 49 125 49 1;
#X msg 20 323 /oled/gLine 3 125 54 125 49 1;
#X msg 1173 266 /oled/gSetPixel 3 104 48 1;
#X msg 1019 266 /oled/gSetPixel 3 27 48 1;
#X msg 865 266 /oled/gSetPixel 3 25 48 1;
#X msg 711 266 /oled/gSetPixel 3 23 48 1;
#X msg 711 294 /oled/gLine 3 2 49 23 49 1;
#X msg 871 294 /oled/gLine 3 25 49 96 49 1;
#X msg 20 95 /oled/gLine 3 76 48 76 50 1;
#X msg 40 131 /oled/gLine 3 80 48 80 50 1;
#X msg 30 113 /oled/gLine 3 78 48 78 50 1;
#X msg 711 322 /oled/gLine 3 4 51 78 51 1;
#X msg 871 322 /oled/gLine 3 80 51 94 51 1;
#X msg 1103 56 /oled/gPrintln 3 7 14 8 1 SELECT MODULE;
#X msg 865 56 /oled/gPrintln 3 6 14 8 1 SELECT MODULE;
#X msg 711 20 /oled/gBox 3 2 2 92 23 1;
#X msg 711 38 /oled/gBox 3 4 4 88 19 1;
#X msg 1055 38 /oled/gPrintln 3 7 6 8 1 ORAC 2;
#X msg 865 38 /oled/gPrintln 3 6 6 8 1 ORAC 2;
#X msg 20 67 /oled/gLine 3 80 0 80 1 1;
#X msg 1043 84 /oled/gLine 3 126 28 127 28 1;
#X msg 711 84 /oled/gBox 3 99 20 27 11 1;
#X msg 877 84 /oled/gLine 3 93 22 98 22 1;
#X obj 285 -14 t b b b b b b b b b b b b b b b b b b b b b b b b b
b b b b b b b b b b b b b b b b b b b b b b b b b b b, f 106;
#X connect 0 0 8 0;
#X connect 1 0 16 0;
#X connect 2 0 16 0;
#X connect 3 0 16 0;
#X connect 4 0 16 0;
#X connect 5 0 16 0;
#X connect 6 0 16 0;
#X connect 7 0 16 0;
#X connect 8 0 53 0;
#X connect 9 0 16 0;
#X connect 10 0 16 0;
#X connect 11 0 16 0;
#X connect 12 0 16 0;
#X connect 13 0 16 0;
#X connect 14 0 16 0;
#X connect 15 0 16 0;
#X connect 17 0 16 0;
#X connect 18 0 16 0;
#X connect 19 0 16 0;
#X connect 20 0 16 0;
#X connect 21 0 16 0;
#X connect 22 0 16 0;
#X connect 23 0 16 0;
#X connect 24 0 16 0;
#X connect 25 0 16 0;
#X connect 26 0 16 0;
#X connect 27 0 16 0;
#X connect 28 0 16 0;
#X connect 29 0 16 0;
#X connect 30 0 16 0;
#X connect 31 0 16 0;
#X connect 32 0 16 0;
#X connect 33 0 16 0;
#X connect 34 0 16 0;
#X connect 35 0 16 0;
#X connect 36 0 16 0;
#X connect 37 0 16 0;
#X connect 38 0 16 0;
#X connect 39 0 16 0;
#X connect 40 0 16 0;
#X connect 41 0 16 0;
#X connect 42 0 16 0;
#X connect 43 0 16 0;
#X connect 44 0 16 0;
#X connect 45 0 16 0;
#X connect 46 0 16 0;
#X connect 47 0 16 0;
#X connect 48 0 16 0;
#X connect 49 0 16 0;
#X connect 50 0 16 0;
#X connect 51 0 16 0;
#X connect 52 0 16 0;
#X connect 53 0 1 0;
#X connect 53 1 3 0;
#X connect 53 2 2 0;
#X connect 53 3 4 0;
#X connect 53 4 31 0;
#X connect 53 5 26 0;
#X connect 53 6 25 0;
#X connect 53 7 12 0;
#X connect 53 8 11 0;
#X connect 53 9 10 0;
#X connect 53 10 15 0;
#X connect 53 11 14 0;
#X connect 53 12 13 0;
#X connect 53 13 39 0;
#X connect 53 14 40 0;
#X connect 53 15 38 0;
#X connect 53 16 49 0;
#X connect 53 17 5 0;
#X connect 53 18 6 0;
#X connect 53 19 7 0;
#X connect 53 20 22 0;
#X connect 53 21 21 0;
#X connect 53 22 27 0;
#X connect 53 23 41 0;
#X connect 53 24 42 0;
#X connect 53 25 30 0;
#X connect 53 26 37 0;
#X connect 53 27 36 0;
#X connect 53 28 32 0;
#X connect 53 29 33 0;
#X connect 53 30 34 0;
#X connect 53 31 35 0;
#X connect 53 32 18 0;
#X connect 53 33 28 0;
#X connect 53 34 20 0;
#X connect 53 35 24 0;
#X connect 53 36 19 0;
#X connect 53 37 29 0;
#X connect 53 38 17 0;
#X connect 53 39 23 0;
#X connect 53 40 9 0;
#X connect 53 41 50 0;
#X connect 53 42 52 0;
#X connect 53 43 51 0;
#X connect 53 44 43 0;
#X connect 53 45 47 0;
#X connect 53 46 44 0;
#X connect 53 47 48 0;
#X connect 53 48 46 0;
#X connect 53 49 45 0;
#X restore 602 321 pd pixels;
#X obj 44 593 pack f f s;
#X msg 6 331 57;
#X msg 44 611 /oled/gPrintln 3 \$1 \$2 8 1 \$3 \;;
#X msg 491 381 39;
#X msg 293 361 47;
#X msg 319 361 58;
#X msg 345 361 70;
#X msg 370 371 100;
#X msg 396 371 111;
#X msg 421 381 6;
#X msg 447 381 17;
#X obj 188 152 s metronome;
#X obj 44 872 s oscOutRaw;
#X obj 446 156 spigot, f 9;
#X msg 446 192 1;
#X obj 446 220 tgl 15 0 empty empty empty 17 7 0 10 -262144 -1 -1 0
1;
#X obj 446 275 s oencbut;
#X obj 446 138 r oenc;
#X obj 394 233 change;
#X obj 394 251 s lock;
#X obj 394 206 r lock;
#X msg 580 258 /oled/gShowInfoBar 3 0;
#X msg 1008 535 /oled/gPrintln 3 85 14 8 1 _;
#X msg 876 384 /oled/gFillArea 3 85 14 5 8 0;
#X msg 994 553 /oled/gFillArea 3 49 6 42 8 0;
#X msg 853 800 /oled/gPrintln 3 49 6 8 1 CPU \$1% \;;
#X obj 853 764 min 99;
#X msg 864 180 /oled/gShowInfoBar 3 1;
#X obj 729 314 sel 0;
#X obj 550 321 spigot;
#X msg 756 828 /oled/gPrintln 3 101 22 8 1 LOCK \;;
#X msg 729 858 /oled/gPrintln 3 101 22 8 0 LOCK \;;
#X obj 487 56 unpack s s;
#X obj 361 57 r oencbut;
#X obj 361 75 sel 0;
#X msg 361 93 0;
#X obj 446 247 change;
#X msg 981 581 /oled/gFillArea 3 0 56 34 8 0;
#X obj 44 575 f;
#X obj 72 575 f;
#X obj 100 575 symbol;
#X obj 798 561 delay 500;
#X msg 968 599 /oled/gFillArea 3 40 56 47 8 0;
#X msg 955 617 /oled/gFillArea 3 93 56 34 8 0;
#X msg 941 635 /oled/gFillArea 3 5 38 24 8 0;
#X msg 928 653 /oled/gFillArea 3 46 38 36 8 0;
#X msg 915 671 /oled/gFillArea 3 99 38 24 8 0;
#X obj 849 517 t b b b b b b b b b b b b b;
#X msg 478 206 0;
#X obj 478 188 r oaux;
#X connect 0 0 1 0;
#X connect 2 0 3 0;
#X connect 3 0 4 0;
#X connect 5 0 6 0;
#X connect 7 0 10 0;
#X connect 7 1 11 0;
#X connect 8 0 64 0;
#X connect 9 0 84 0;
#X connect 10 0 25 0;
#X connect 11 0 25 0;
#X connect 13 0 15 0;
#X connect 14 0 13 0;
#X connect 14 0 23 0;
#X connect 14 0 93 0;
#X connect 15 0 22 0;
#X connect 16 0 18 0;
#X connect 17 0 78 0;
#X connect 18 0 17 0;
#X connect 19 0 77 0;
#X connect 20 0 15 0;
#X connect 21 0 64 0;
#X connect 22 0 99 0;
#X connect 22 1 75 0;
#X connect 23 0 27 0;
#X connect 24 0 20 0;
#X connect 24 0 23 0;
#X connect 24 1 14 0;
#X connect 24 1 21 0;
#X connect 24 1 79 0;
#X connect 25 0 24 0;
#X connect 25 0 37 1;
#X connect 25 0 65 1;
#X connect 27 0 8 0;
#X connect 27 1 51 0;
#X connect 27 2 81 0;
#X connect 27 3 13 0;
#X connect 27 4 73 0;
#X connect 27 5 21 0;
#X connect 28 0 29 0;
#X connect 29 0 30 0;
#X connect 29 1 31 0;
#X connect 30 0 26 0;
#X connect 31 0 26 0;
#X connect 32 0 33 0;
#X connect 33 0 39 0;
#X connect 33 1 34 0;
#X connect 37 0 63 0;
#X connect 38 0 37 0;
#X connect 39 0 36 0;
#X connect 39 1 35 0;
#X connect 40 0 90 1;
#X connect 41 0 90 1;
#X connect 42 0 90 1;
#X connect 43 0 90 1;
#X connect 44 0 90 1;
#X connect 45 0 90 1;
#X connect 46 0 90 1;
#X connect 47 0 90 1;
#X connect 48 0 90 1;
#X connect 49 0 90 1;
#X connect 50 0 40 0;
#X connect 50 0 53 0;
#X connect 50 1 41 0;
#X connect 50 1 53 0;
#X connect 50 2 42 0;
#X connect 50 2 53 0;
#X connect 50 3 46 0;
#X connect 50 3 53 0;
#X connect 50 4 47 0;
#X connect 50 4 53 0;
#X connect 50 5 48 0;
#X connect 50 5 53 0;
#X connect 50 6 49 0;
#X connect 50 6 53 0;
#X connect 50 7 45 0;
#X connect 50 7 53 0;
#X connect 50 8 44 0;
#X connect 50 8 53 0;
#X connect 50 9 43 0;
#X connect 50 9 53 0;
#X connect 50 10 55 0;
#X connect 50 10 56 0;
#X connect 50 11 55 0;
#X connect 50 11 57 0;
#X connect 50 12 55 0;
#X connect 50 12 58 0;
#X connect 50 13 55 0;
#X connect 50 13 59 0;
#X connect 50 14 55 0;
#X connect 50 14 60 0;
#X connect 50 15 55 0;
#X connect 50 15 61 0;
#X connect 50 16 55 0;
#X connect 50 16 62 0;
#X connect 51 0 64 0;
#X connect 52 0 54 0;
#X connect 53 0 91 1;
#X connect 54 0 64 0;
#X connect 55 0 91 1;
#X connect 56 0 90 1;
#X connect 57 0 90 1;
#X connect 58 0 90 1;
#X connect 59 0 90 1;
#X connect 60 0 90 1;
#X connect 61 0 90 1;
#X connect 62 0 90 1;
#X connect 65 0 66 0;
#X connect 66 0 67 0;
#X connect 67 0 70 0;
#X connect 67 0 88 0;
#X connect 69 0 65 0;
#X connect 70 0 71 0;
#X connect 72 0 67 0;
#X connect 73 0 64 0;
#X connect 74 0 64 0;
#X connect 75 0 64 0;
#X connect 76 0 64 0;
#X connect 77 0 64 0;
#X connect 78 0 19 0;
#X connect 79 0 64 0;
#X connect 80 0 83 0;
#X connect 80 1 82 0;
#X connect 81 0 82 0;
#X connect 82 0 64 0;
#X connect 83 0 64 0;
#X connect 84 0 7 0;
#X connect 84 0 50 0;
#X connect 84 0 92 1;
#X connect 85 0 86 0;
#X connect 86 0 87 0;
#X connect 87 0 67 0;
#X connect 88 0 68 0;
#X connect 88 0 80 0;
#X connect 88 0 81 1;
#X connect 89 0 64 0;
#X connect 90 0 52 0;
#X connect 91 0 52 1;
#X connect 92 0 52 2;
#X connect 93 0 92 0;
#X connect 93 0 91 0;
#X connect 93 0 90 0;
#X connect 94 0 64 0;
#X connect 95 0 64 0;
#X connect 96 0 64 0;
#X connect 97 0 64 0;
#X connect 98 0 64 0;
#X connect 99 0 8 0;
#X connect 99 1 93 0;
#X connect 99 2 16 0;
#X connect 99 3 16 1;
#X connect 99 5 98 0;
#X connect 99 6 97 0;
#X connect 99 7 96 0;
#X connect 99 8 95 0;
#X connect 99 9 94 0;
#X connect 99 10 89 0;
#X connect 99 11 76 0;
#X connect 99 12 74 0;
#X connect 100 0 67 0;
#X connect 101 0 100 0;
