#N canvas 119 51 945 719 10;
#X obj 304 186 r notesIn-\$1;
#X obj 366 668 s notesOut-\$1;
#X obj 23 9 r loaddefs-\$1;
#X msg 23 76 loaddefinitions \$1;
#X obj 181 9 r loadbang-\$1;
#X obj 181 76 print loading definiton for \$1;
#X obj 23 41 symbol;
#X obj 25 186 inlet~ inL-\$1;
#X obj 135 186 inlet~ inR-\$1;
#X obj 27 491 outlet~ outL-\$1;
#X obj 136 491 outlet~ outR-\$1;
#X obj 424 185 r auxIn-\$1;
#X obj 423 208 r expIn-\$1;
#X obj 423 233 r fsIn-\$1;
#X obj 181 45 print loaded:default into \$1, f 35;
#X obj 516 45 int 0;
#X obj 516 76 s aux-led-\$1;
#X obj 629 169 s aux-label-\$1;
#X msg 629 137 Audio/Notes passthru;
#X msg 507 160 focus;
#X obj 509 379 meadowphysics;
#X obj 23 112 KontrolModule \$1 U-meadowphysics;
#X obj 668 264 r pb_div-\$1;
#X obj 599 249 int;
#X obj 599 272 + 1;
#X obj 598 209 r master-ticks;
#X obj 608 311 mod 4;
#X obj 609 333 route 0;
#X obj 574 357 bng 15 250 50 0 empty empty empty 17 7 0 10 -262144
-1 -1;
#X obj 509 634 notemaker \$1 1;
#X obj 489 444 route 1 2 3 4 5 6 7 8;
#X obj 528 608 notemaker \$1 2;
#X obj 545 579 notemaker \$1 3;
#X obj 566 554 notemaker \$1 4;
#X obj 591 528 notemaker \$1 5;
#X obj 611 505 notemaker \$1 6;
#X obj 626 479 notemaker \$1 7;
#X obj 652 453 notemaker \$1 8;
#X obj 498 420 + 1;
#X connect 0 0 1 0;
#X connect 2 0 6 0;
#X connect 2 0 5 0;
#X connect 3 0 21 0;
#X connect 4 0 14 0;
#X connect 4 0 15 0;
#X connect 4 0 18 0;
#X connect 4 0 19 0;
#X connect 6 0 3 0;
#X connect 7 0 9 0;
#X connect 8 0 10 0;
#X connect 15 0 16 0;
#X connect 18 0 17 0;
#X connect 19 0 20 0;
#X connect 20 0 38 0;
#X connect 22 0 26 1;
#X connect 23 0 24 0;
#X connect 24 0 23 1;
#X connect 24 0 26 0;
#X connect 25 0 23 0;
#X connect 26 0 27 0;
#X connect 27 0 28 0;
#X connect 28 0 20 0;
#X connect 29 0 1 0;
#X connect 30 0 29 0;
#X connect 30 1 31 0;
#X connect 30 2 32 0;
#X connect 30 3 33 0;
#X connect 30 4 34 0;
#X connect 30 5 35 0;
#X connect 30 6 36 0;
#X connect 30 7 37 0;
#X connect 31 0 1 0;
#X connect 32 0 1 0;
#X connect 33 0 1 0;
#X connect 34 0 1 0;
#X connect 35 0 1 0;
#X connect 36 0 1 0;
#X connect 37 0 1 0;
#X connect 38 0 30 0;
