#N canvas 960 96 960 984 12;
#N canvas 725 96 1195 984 keith_scales 1;
#X obj 335 841 noteout, f 37;
#X msg 318 774 127;
#X msg 621 733 0;
#X msg 522 128 list A A# B C C# D D# E F F# G G#;
#X obj 166 297 zl mth;
#X obj 303 295 zl mth;
#X obj 309 355 symbol;
#X obj 166 363 symbol;
#X obj 141 550 symbol;
#X obj 106 652 seq;
#X msg 140 584 read \$1;
#X obj 166 388 t s s;
#X obj 138 443 pack 0 s s s;
#X obj 128 689 t f b b;
#X obj 779 452 + 1;
#X obj 716 453 f 48;
#X msg 864 366 0;
#X obj 778 505 select 72;
#X msg 781 412 48;
#X obj 716 652 t f b b;
#X obj 421 439 print;
#X msg 420 406 \$3 - \$4;
#X msg 589 811 15;
#X msg 139 500 midi_stuff/MIDI_Scales_Reference_Pack/Midi_Scales_Pack/More_Scales/\$2-Scales/new_\$3-\$4.mid
;
#X obj 459 27 r loadbang-\$1;
#X obj 105 297 t b b;
#X text 369 458 TODO: print on screen;
#X obj 298 163 t b b f b;
#X obj 160 164 t b b f b;
#X msg 512 167 list Arabic Ionian Neapolitan Blues Japanese_Insen Neapolitan_Minor
Diatonic Lydian Pentatonic_Blues Diminished Major_Bebop Pentatonic_Major
Dominant_Bebop Major Pentatonic_Minor Dorian Melodic_Minor Phrygian
Enigmatic Minor Whole_Tone Off;
#X msg 378 99 0;
#X obj 459 52 t b b;
#X obj 658 414 metro 1 1 samp;
#X obj 12 566 delay 50 1 msec;
#X obj 240 26 r scale-\$1;
#X obj 102 27 r root-\$1;
#X obj 339 241 select 21;
#X msg 391 301;
#X connect 1 0 0 1;
#X connect 2 0 0 1;
#X connect 3 0 4 0;
#X connect 4 0 7 0;
#X connect 5 0 6 0;
#X connect 6 0 12 3;
#X connect 7 0 11 0;
#X connect 8 0 10 0;
#X connect 9 0 13 0;
#X connect 10 0 9 0;
#X connect 11 0 12 1;
#X connect 11 1 12 2;
#X connect 12 0 23 0;
#X connect 12 0 21 0;
#X connect 13 0 0 0;
#X connect 13 1 1 0;
#X connect 13 2 22 0;
#X connect 14 0 15 1;
#X connect 15 0 14 0;
#X connect 15 0 17 0;
#X connect 15 0 19 0;
#X connect 16 0 18 0;
#X connect 16 0 32 0;
#X connect 17 0 16 0;
#X connect 18 0 15 1;
#X connect 19 0 0 0;
#X connect 19 1 2 0;
#X connect 19 2 22 0;
#X connect 21 0 20 0;
#X connect 22 0 0 2;
#X connect 23 0 8 0;
#X connect 24 0 31 0;
#X connect 25 0 33 0;
#X connect 25 1 12 0;
#X connect 27 0 25 0;
#X connect 27 1 5 0;
#X connect 27 2 36 0;
#X connect 27 3 32 0;
#X connect 28 0 25 0;
#X connect 28 1 4 0;
#X connect 28 2 4 1;
#X connect 28 3 32 0;
#X connect 29 0 5 0;
#X connect 30 0 27 0;
#X connect 30 0 28 0;
#X connect 31 0 30 0;
#X connect 31 1 3 0;
#X connect 31 1 29 0;
#X connect 32 0 15 0;
#X connect 33 0 9 0;
#X connect 34 0 27 0;
#X connect 35 0 28 0;
#X connect 36 1 5 1;
#X restore 339 312 pd keith_scales;
#X obj 469 165 r notesIn-\$1;
#X obj 469 470 s notesOut-\$1;
#X obj 190 165 inlet~ inL-\$1;
#X obj 300 165 inlet~ inR-\$1;
#X obj 192 470 outlet~ outL-\$1;
#X obj 301 470 outlet~ outR-\$1;
#X obj 664 165 r auxIn-\$1;
#X obj 663 188 r expIn-\$1;
#X obj 663 213 r fsIn-\$1;
#X obj 563 165 r ctrlIn-\$1;
#X obj 563 470 s ctrlOut-\$1;
#X connect 1 0 2 0;
#X connect 3 0 5 0;
#X connect 4 0 6 0;
#X connect 10 0 11 0;
