#N canvas 2606 559 960 984 12;
#N canvas 729 987 1428 984 keith_scales 1;
#X obj 335 841 noteout, f 37;
#X msg 318 774 127;
#X msg 621 733 0;
#X msg 522 128 list A A# B C C# D D# E F F# G G#;
#X obj 166 297 zl mth;
#X obj 303 295 zl mth;
#X obj 309 355 symbol;
#X obj 166 363 symbol;
#X obj 141 550 symbol;
#X obj 106 652 seq;
#X msg 140 584 read \$1;
#X obj 166 388 t s s;
#X obj 138 443 pack 0 s s s;
#X obj 128 689 t f b b;
#X obj 779 452 + 1;
#X obj 716 453 f 48;
#X msg 864 366 0;
#X obj 778 505 select 72;
#X msg 781 412 48;
#X obj 716 652 t f b b;
#X msg 937 615 \$3 - \$4;
#X msg 589 811 15;
#X obj 459 27 r loadbang-\$1;
#X obj 105 297 t b b;
#X obj 298 163 t b b f b;
#X obj 160 164 t b b f b;
#X msg 512 167 list Arabic Ionian Neapolitan Blues Japanese_Insen Neapolitan_Minor
Diatonic Lydian Pentatonic_Blues Diminished Major_Bebop Pentatonic_Major
Dominant_Bebop Major Pentatonic_Minor Dorian Melodic_Minor Phrygian
Enigmatic Minor Whole_Tone Off;
#X msg 378 99 0;
#X obj 459 52 t b b;
#X obj 658 414 metro 1 1 samp;
#X obj 12 566 delay 50 1 msec;
#X obj 240 26 r scale-\$1;
#X obj 102 27 r root-\$1;
#X obj 1078 864 NuiPd;
#X msg 994 566 process 1;
#X obj 994 538 metro 1 10 msec;
#X obj 995 467 r loadbang-\$1;
#X obj 995 492 delay 1;
#X obj 995 518 tgl 15 0 empty empty empty 17 7 0 10 -262144 -1 -1 1
1;
#X msg 1085 648 gClear 0;
#X obj 894 727 list append;
#X obj 961 769 list trim;
#X obj 937 640 t b a b;
#X msg 139 500 scales_midi/\$2-Scales/new_\$3-\$4.mid;
#X msg 842 698 textLine 15 2 9;
#X obj 1020 292 r activeModule;
#X obj 1020 316 sel \$1;
#X msg 1020 340 send /oled/dummy grabDisplay;
#X obj 1020 364 s oscOutRaw;
#X connect 1 0 0 1;
#X connect 2 0 0 1;
#X connect 3 0 4 0;
#X connect 4 0 7 0;
#X connect 5 0 6 0;
#X connect 6 0 12 3;
#X connect 7 0 11 0;
#X connect 8 0 10 0;
#X connect 9 0 13 0;
#X connect 10 0 9 0;
#X connect 11 0 12 1;
#X connect 11 1 12 2;
#X connect 12 0 43 0;
#X connect 12 0 20 0;
#X connect 13 0 0 0;
#X connect 13 1 1 0;
#X connect 13 2 21 0;
#X connect 14 0 15 1;
#X connect 15 0 14 0;
#X connect 15 0 17 0;
#X connect 15 0 19 0;
#X connect 16 0 18 0;
#X connect 16 0 29 0;
#X connect 17 0 16 0;
#X connect 18 0 15 1;
#X connect 19 0 0 0;
#X connect 19 1 2 0;
#X connect 19 2 21 0;
#X connect 20 0 42 0;
#X connect 21 0 0 2;
#X connect 22 0 28 0;
#X connect 23 0 30 0;
#X connect 23 1 12 0;
#X connect 24 0 23 0;
#X connect 24 1 5 0;
#X connect 24 2 5 1;
#X connect 24 3 29 0;
#X connect 25 0 23 0;
#X connect 25 1 4 0;
#X connect 25 2 4 1;
#X connect 25 3 29 0;
#X connect 26 0 5 0;
#X connect 27 0 24 0;
#X connect 27 0 25 0;
#X connect 28 0 27 0;
#X connect 28 1 3 0;
#X connect 28 1 26 0;
#X connect 29 0 15 0;
#X connect 30 0 9 0;
#X connect 31 0 24 0;
#X connect 32 0 25 0;
#X connect 34 0 33 0;
#X connect 35 0 34 0;
#X connect 36 0 37 0;
#X connect 37 0 38 0;
#X connect 38 0 35 0;
#X connect 39 0 33 0;
#X connect 40 0 41 0;
#X connect 41 0 33 0;
#X connect 42 0 44 0;
#X connect 42 1 40 1;
#X connect 42 2 39 0;
#X connect 43 0 8 0;
#X connect 44 0 40 0;
#X connect 45 0 46 0;
#X connect 46 0 47 0;
#X connect 47 0 48 0;
#X restore 339 312 pd keith_scales;
#X obj 469 165 r notesIn-\$1;
#X obj 469 470 s notesOut-\$1;
#X obj 190 165 inlet~ inL-\$1;
#X obj 300 165 inlet~ inR-\$1;
#X obj 192 470 outlet~ outL-\$1;
#X obj 301 470 outlet~ outR-\$1;
#X obj 664 165 r auxIn-\$1;
#X obj 663 188 r expIn-\$1;
#X obj 663 213 r fsIn-\$1;
#X obj 563 165 r ctrlIn-\$1;
#X obj 563 470 s ctrlOut-\$1;
#X connect 1 0 2 0;
#X connect 3 0 5 0;
#X connect 4 0 6 0;
#X connect 10 0 11 0;
