#N canvas 245 308 485 425 10;
#X obj 54 168 int;
#X obj 73 204 makenote;
#X obj 76 239 pack;
#X obj 56 16 inlet;
#X obj 80 356 outlet;
#X obj 88 118 r pb_note_\$2-\$1;
#X obj 134 148 r pb_vel_\$2-\$1;
#X obj 154 175 r pb_len_\$2-\$1;
#X obj 167 296 spigot;
#X obj 283 119 random 100;
#X obj 61 43 t b b;
#X obj 314 169 r pb_prob_\$2-\$1;
#X obj 279 221 >;
#X obj 270 261 == 0;
#X connect 0 0 1 0;
#X connect 1 0 2 0;
#X connect 1 1 2 1;
#X connect 2 0 8 0;
#X connect 3 0 10 0;
#X connect 5 0 0 1;
#X connect 6 0 1 1;
#X connect 7 0 1 2;
#X connect 8 0 4 0;
#X connect 9 0 12 0;
#X connect 10 0 0 0;
#X connect 10 1 9 0;
#X connect 11 0 12 1;
#X connect 12 0 13 0;
#X connect 13 0 8 1;
