#N canvas 325 175 2115 1488 10;
#X obj 80 423 udpsend localhost 12002;
#X obj 454 589 udpsend localhost 0;
#X obj 387 160 udpreceive 12289;
#X obj 387 226 outlet OSC-from-serialosc;
#X obj 251 456 inlet OSC-to-serialosc;
#X msg 387 136 port \$1;
#X obj 260 7 loadbang;
#X msg 388 78 \$0;
#X obj 387 108 + 12289;
#X obj 82 391 packOSC;
#X text 39 186 bang for 'rescan';
#X text 351 36 bang for init;
#X text 691 392 this connects;
#X obj 585 232 routeOSC /serialosc/device /serialosc/remove /serialosc/add
;
#X obj 584 277 spigot 0;
#X text 688 340 this auto-connects to first device in list;
#X obj 454 563 packOSC;
#X obj 386 183 unpackOSC;
#X obj 224 20 bng 15 250 50 0 empty empty empty 17 7 0 10 -262144 -1
-1;
#X obj 721 258 t b;
#X obj 579 312 unpack s s f;
#X obj 585 430 float;
#X msg 24 344 send /serialosc/notify localhost \$1;
#X msg 84 307 send /serialosc/list localhost \$1;
#X obj 25 305 float;
#X obj 85 280 float;
#X msg 137 391 connect localhost 12002;
#X msg 672 537 connect localhost \$1;
#X obj 622 388 t b b b f b;
#X msg 711 512 disconnect;
#X obj 262 39 t b b b b 1;
#X obj 64 215 t b b b b;
#X msg 125 244 1;
#X obj 649 341 t f b;
#X msg 697 297 0;
#X msg 406 434 send /sys/prefix \$1;
#X obj 410 279 inlet prefix;
#X msg 417 359 /monome;
#X obj 354 319 t b;
#X obj 251 507 list prepend send;
#X obj 251 529 list trim;
#X obj 822 495 outlet bang-on-connect;
#X obj 410 309 list prepend set;
#X obj 415 332 list trim;
#X obj 417 381 list prepend symbol;
#X obj 417 403 list trim;
#X msg 556 461 send /sys/port \$1;
#X connect 2 0 17 0;
#X connect 4 0 39 0;
#X connect 5 0 2 0;
#X connect 6 0 30 0;
#X connect 7 0 8 0;
#X connect 8 0 5 0;
#X connect 8 0 24 1;
#X connect 8 0 25 1;
#X connect 8 0 21 1;
#X connect 9 0 0 0;
#X connect 13 0 14 0;
#X connect 13 1 19 0;
#X connect 13 2 19 0;
#X connect 14 0 20 0;
#X connect 16 0 1 0;
#X connect 17 0 3 0;
#X connect 17 0 13 0;
#X connect 18 0 30 0;
#X connect 19 0 31 0;
#X connect 20 2 33 0;
#X connect 21 0 46 0;
#X connect 22 0 9 0;
#X connect 23 0 9 0;
#X connect 24 0 22 0;
#X connect 25 0 23 0;
#X connect 26 0 0 0;
#X connect 27 0 1 0;
#X connect 28 0 41 0;
#X connect 28 1 37 0;
#X connect 28 2 21 0;
#X connect 28 3 27 0;
#X connect 28 4 29 0;
#X connect 29 0 1 0;
#X connect 30 1 31 0;
#X connect 30 2 7 0;
#X connect 30 3 26 0;
#X connect 31 1 24 0;
#X connect 31 2 25 0;
#X connect 31 3 32 0;
#X connect 32 0 14 1;
#X connect 33 0 28 0;
#X connect 33 1 34 0;
#X connect 34 0 14 1;
#X connect 35 0 16 0;
#X connect 36 0 38 0;
#X connect 36 0 42 0;
#X connect 37 0 44 0;
#X connect 38 0 37 0;
#X connect 39 0 40 0;
#X connect 40 0 16 0;
#X connect 42 0 43 0;
#X connect 43 0 37 0;
#X connect 44 0 45 0;
#X connect 45 0 35 0;
#X connect 46 0 16 0;
