#N canvas 578 204 671 700 10;
#X obj 304 186 r notesIn-\$1;
#X obj 304 491 s notesOut-\$1;
#X obj 25 186 inlet~ inL-\$1;
#X obj 135 186 inlet~ inR-\$1;
#X obj 27 491 outlet~ outL-\$1;
#X obj 136 491 outlet~ outR-\$1;
#X obj 499 186 r auxIn-\$1;
#X obj 498 209 r expIn-\$1;
#X obj 498 234 r fsIn-\$1;
#X obj 398 186 r ctrlIn-\$1;
#X obj 398 491 s ctrlOut-\$1;
#X obj 481 438 print;
#X connect 0 0 1 0;
#X connect 0 0 11 0;
#X connect 2 0 4 0;
#X connect 3 0 5 0;
#X connect 9 0 10 0;
#X connect 9 0 11 0;
