#N canvas 30 67 1304 977 10;
#X obj 577 48 r loadbang-\$1;
#X obj 92 137 inlet~ inL-\$1;
#X obj 401 137 inlet~ inR-\$1;
#X obj 69 614 outlet~ OutL-\$1;
#X obj 395 614 outlet~ OutR-\$1;
#X obj 688 478 sel \$1, f 10;
#X obj 688 460 unpack s s, f 14;
#X obj 688 442 r activePage;
#X obj 688 524 &&;
#X msg 769 496 1;
#X msg 886 496 0;
#X msg 688 496 1;
#X msg 745 496 0;
#X obj 769 478 sel pg_supercompress;
#X msg 577 406 knee 0;
#X obj 92 265 tb_peakcomp~;
#X obj 401 265 tb_peakcomp~;
#X obj 577 76 delay 100;
#X obj 577 266 delay 100;
#X obj 401 443 tb_peakcomp~;
#X obj 92 443 tb_peakcomp~;
#X msg 609 218 knee 1;
#X obj 395 578 *~;
#X obj 69 578 *~;
#X msg 609 106 threshold 0;
#X msg 593 378 release 7;
#X msg 593 350 attack 1;
#X obj 471 91 bng 15 250 50 0 empty empty empty 17 7 0 10 -262144 -1
-1;
#X obj 263 824 i;
#X obj 263 842 + 2;
#X obj 263 752 -;
#X obj 251 714 f;
#X obj 263 788 + 1;
#X obj 263 806 * 600;
#X obj 305 485 +;
#X obj 470 301 + 0.01;
#X obj 161 301 + 0.01;
#X msg 609 190 release \$1;
#X obj 263 860 min 125;
#X msg 609 162 100;
#X obj 471 25 pack 0 100;
#X obj 471 43 line;
#X obj 251 485 +;
#X obj 317 824 i;
#X obj 317 842 + 2;
#X obj 317 752 -;
#X obj 305 724 f;
#X obj 317 788 + 1;
#X obj 317 806 * 600;
#X obj 317 860 min 125;
#X obj 329 529 delread~ R-\$1 1;
#X obj 329 511 delwrite~ R-\$1 10;
#X obj 17 511 delwrite~ L-\$1 10;
#X obj 17 529 delread~ L-\$1 1;
#X msg 555 996 /oled/gFlip 3 1;
#X msg 618 848 /oled/gFillArea 3 0 17 128 47 0;
#X obj 570 950 f 0;
#X obj 586 904 f 0, f 5;
#X obj 251 678 spigot 0;
#X obj 305 688 spigot 0;
#X obj 251 696 t b f;
#X obj 305 706 t b f;
#X obj 471 7 r reaction-\$1;
#X obj 182 1204 s oscOutRaw;
#X msg 602 876 /oled/gPrintln 3 2 37 8 1 ---------------------;
#X obj 161 283 env~ 4410 2205;
#X obj 470 283 env~ 4410 2205;
#X msg 586 922 /oled/gBox 3 2 20 \$1 17 1;
#X msg 570 968 /oled/gBox 3 2 44 \$1 17 1;
#X obj 688 560 sel 1;
#X msg 768 624 0;
#X obj 688 606 delay 500;
#X msg 794 574 stop;
#X msg 688 624 1;
#X msg 182 1032 /oled/gFillArea 3 0 50 128 14 0;
#X obj 688 542 change;
#X obj 17 493 /~ 3;
#X obj 17 547 *~ 3;
#X obj 329 493 /~ 3;
#X obj 329 547 *~ 3;
#X msg 593 294 threshold 0;
#X obj 771 48 bng 15 250 50 0 empty empty empty 17 7 0 10 -262144 -1
-1;
#X msg 593 322 ratio 1000;
#X msg 609 134 ratio 1000;
#X obj 555 830 t b b b b b;
#X text 770 30 reset;
#X obj 317 770 / 200;
#X obj 263 770 / 200;
#X obj 555 812 metro 50;
#X obj 161 471 env~ 4410 2205;
#X obj 470 471 env~ 4410 2205;
#X obj 69 596 /~ 1.7;
#X obj 395 596 /~ 1.7;
#X text 678 106 dBFS;
#X text 662 294 dBFS;
#X obj 938 758 r auxIn-\$1;
#X msg 1032 948 /oled/aux/clear 1;
#X msg 972 1060 /oled/setscreen 1;
#X msg 977 1134 /oled/setscreen 3;
#X msg 938 1190 /oled/aux/clear 1;
#X obj 938 912 sel 0 1;
#X msg 1002 1004 /oled/aux/line/2 Threshold = 0dBFS;
#X msg 987 1032 /oled/aux/line/3 Lookahead = 1ms;
#X msg 957 1088 6;
#X obj 810 1176 s aux-led-\$1;
#X obj 938 1116 t b b b;
#X msg 957 1162 0;
#X obj 943 812 cputime;
#X obj 943 776 metro 1000;
#X obj 943 794 t b b, f 7;
#X obj 943 848 * 0.1;
#X obj 943 830 int;
#X obj 943 866 min 100;
#X msg 943 884 /oled/aux/line/4 CPU = \$1 %;
#X obj 957 930 t b b b b b b;
#X msg 1017 976 /oled/aux/line/1 SuperCompress (2.2);
#X connect 0 0 17 0;
#X connect 1 0 15 0;
#X connect 1 0 15 1;
#X connect 2 0 16 0;
#X connect 2 0 16 1;
#X connect 5 0 11 0;
#X connect 5 1 12 0;
#X connect 6 0 5 0;
#X connect 6 1 13 0;
#X connect 7 0 6 0;
#X connect 8 0 75 0;
#X connect 9 0 8 1;
#X connect 10 0 8 1;
#X connect 11 0 8 0;
#X connect 12 0 8 0;
#X connect 13 0 9 0;
#X connect 13 1 10 0;
#X connect 14 0 19 0;
#X connect 14 0 20 0;
#X connect 15 0 20 0;
#X connect 15 0 20 1;
#X connect 15 0 76 0;
#X connect 15 2 65 0;
#X connect 16 0 19 0;
#X connect 16 0 19 1;
#X connect 16 0 78 0;
#X connect 16 2 66 0;
#X connect 17 0 24 0;
#X connect 17 0 83 0;
#X connect 17 0 21 0;
#X connect 17 0 18 0;
#X connect 17 0 39 0;
#X connect 18 0 14 0;
#X connect 18 0 80 0;
#X connect 18 0 82 0;
#X connect 18 0 25 0;
#X connect 18 0 26 0;
#X connect 19 2 22 1;
#X connect 19 2 90 0;
#X connect 20 2 23 1;
#X connect 20 2 89 0;
#X connect 21 0 15 0;
#X connect 21 0 16 0;
#X connect 22 0 92 0;
#X connect 23 0 91 0;
#X connect 24 0 15 0;
#X connect 24 0 16 0;
#X connect 25 0 19 0;
#X connect 25 0 20 0;
#X connect 26 0 19 0;
#X connect 26 0 20 0;
#X connect 27 0 24 0;
#X connect 27 0 83 0;
#X connect 27 0 21 0;
#X connect 27 0 18 0;
#X connect 28 0 29 0;
#X connect 29 0 38 0;
#X connect 30 0 87 0;
#X connect 31 0 30 0;
#X connect 32 0 33 0;
#X connect 33 0 28 0;
#X connect 34 0 59 0;
#X connect 35 0 34 0;
#X connect 36 0 42 0;
#X connect 37 0 15 0;
#X connect 37 0 16 0;
#X connect 38 0 57 1;
#X connect 39 0 37 0;
#X connect 40 0 41 0;
#X connect 41 0 27 0;
#X connect 41 0 37 0;
#X connect 42 0 58 0;
#X connect 43 0 44 0;
#X connect 44 0 49 0;
#X connect 45 0 86 0;
#X connect 46 0 45 0;
#X connect 47 0 48 0;
#X connect 48 0 43 0;
#X connect 49 0 56 1;
#X connect 50 0 79 0;
#X connect 53 0 77 0;
#X connect 54 0 63 0;
#X connect 55 0 63 0;
#X connect 56 0 68 0;
#X connect 57 0 67 0;
#X connect 58 0 60 0;
#X connect 59 0 61 0;
#X connect 60 0 31 0;
#X connect 60 1 30 1;
#X connect 61 0 46 0;
#X connect 61 1 45 1;
#X connect 62 0 40 0;
#X connect 64 0 63 0;
#X connect 65 0 36 0;
#X connect 66 0 35 0;
#X connect 67 0 63 0;
#X connect 68 0 63 0;
#X connect 69 0 71 0;
#X connect 69 1 70 0;
#X connect 69 1 72 0;
#X connect 69 1 74 0;
#X connect 70 0 59 1;
#X connect 70 0 58 1;
#X connect 71 0 73 0;
#X connect 71 0 88 0;
#X connect 72 0 71 0;
#X connect 72 0 88 0;
#X connect 73 0 59 1;
#X connect 73 0 58 1;
#X connect 74 0 63 0;
#X connect 75 0 69 0;
#X connect 76 0 52 0;
#X connect 77 0 23 0;
#X connect 78 0 51 0;
#X connect 79 0 22 0;
#X connect 80 0 20 0;
#X connect 80 0 19 0;
#X connect 81 0 17 0;
#X connect 81 0 88 0;
#X connect 82 0 20 0;
#X connect 82 0 19 0;
#X connect 83 0 15 0;
#X connect 83 0 16 0;
#X connect 84 0 54 0;
#X connect 84 1 56 0;
#X connect 84 2 57 0;
#X connect 84 3 64 0;
#X connect 84 4 55 0;
#X connect 86 0 47 0;
#X connect 87 0 32 0;
#X connect 88 0 84 0;
#X connect 89 0 42 1;
#X connect 90 0 34 1;
#X connect 91 0 3 0;
#X connect 92 0 4 0;
#X connect 95 0 100 0;
#X connect 95 0 108 0;
#X connect 96 0 63 0;
#X connect 97 0 63 0;
#X connect 98 0 63 0;
#X connect 99 0 63 0;
#X connect 100 0 105 0;
#X connect 100 1 114 0;
#X connect 101 0 63 0;
#X connect 102 0 63 0;
#X connect 103 0 104 0;
#X connect 105 0 99 0;
#X connect 105 1 106 0;
#X connect 105 2 98 0;
#X connect 106 0 104 0;
#X connect 107 0 111 0;
#X connect 108 0 109 0;
#X connect 109 0 107 0;
#X connect 109 1 107 1;
#X connect 110 0 112 0;
#X connect 111 0 110 0;
#X connect 112 0 113 0;
#X connect 113 0 63 0;
#X connect 114 0 103 0;
#X connect 114 1 97 0;
#X connect 114 2 102 0;
#X connect 114 3 101 0;
#X connect 114 4 115 0;
#X connect 114 5 96 0;
#X connect 115 0 63 0;
